# Blender v3.0.1 OBJ File: ''
# www.blender.org
mtllib cube.mtl
o Cube.001
v -1.661035 -1.661035 1.661035
v -1.661035 -1.661035 -1.661035
v 1.661035 -1.661035 -1.661035
v 1.661035 -1.661035 1.661035
v -1.661035 1.661035 -1.661035
v 1.661035 1.661035 -1.661035
v 1.661035 1.661035 1.661035
v -1.661035 1.661035 1.661035
vt 0.000000 0.000000
vt 0.000000 1.000000
vt 1.000000 1.000000
vt 1.000000 0.000000
vt 0.000000 0.000000
vt 0.000000 1.000000
vt 1.000000 0.000000
vt 0.000000 0.000000
vt 0.000000 1.000000
vt 1.000000 1.000000
vt 1.000000 0.000000
vt 0.000000 0.000000
vt 0.999270 1.000000
vt 1.000000 0.000000
vt 0.000000 0.000000
vt 0.004402 1.000000
vt 1.000000 1.000000
vt 0.995598 0.000000
vt 1.000000 1.000000
vt 0.000000 0.999958
vn 0.0000 -1.0000 -0.0000
vn 0.0000 0.0000 -1.0000
vn 1.0000 0.0000 0.0000
vn 0.0000 1.0000 0.0000
vn -1.0000 0.0000 0.0000
vn 0.0000 -0.0000 1.0000
usemtl Material.001
s 1
f 1/1/1 2/2/1 3/3/1 4/4/1
f 5/5/2 6/6/2 3/3/2 2/7/2
f 6/8/3 7/9/3 4/10/3 3/11/3
f 7/12/4 6/6/4 5/13/4 8/14/4
f 8/15/5 5/16/5 2/17/5 1/18/5
f 7/19/6 8/14/6 1/1/6 4/20/6
