# Blender v3.0.1 OBJ File: 'sampleSkyBox.blend'
# www.blender.org
mtllib sampleSkyBox.mtl
o Cube
v 52.691109 52.691109 -52.691109
v 52.691109 -52.691109 -52.691109
v 52.691109 52.691109 52.691109
v 52.691109 -52.691109 52.691109
v -52.691109 52.691109 -52.691109
v -52.691109 -52.691109 -52.691109
v -52.691109 52.691109 52.691109
v -52.691109 -52.691109 52.691109
vt 0.499462 0.665857
vt 0.499604 0.999415
vt 0.250044 0.999945
vt 0.250258 0.665717
vt 0.250389 0.333799
vt 0.000244 0.665717
vt 0.000145 0.334099
vt 0.999878 0.334199
vt 0.999650 0.665731
vt 0.748456 0.666176
vt 0.750602 0.335696
vt 0.499850 0.000231
vt 0.499545 0.335250
vt 0.250144 0.000154
vn 0.0000 1.0000 0.0000
vn 0.0000 0.0000 1.0000
vn -1.0000 0.0000 0.0000
vn 0.0000 -1.0000 0.0000
vn 1.0000 0.0000 0.0000
vn 0.0000 0.0000 -1.0000
usemtl Material
s off
f 1/1/1 5/2/1 7/3/1 3/4/1
f 4/5/2 3/4/2 7/6/2 8/7/2
f 8/8/3 7/9/3 5/10/3 6/11/3
f 6/12/4 2/13/4 4/5/4 8/14/4
f 2/13/5 1/1/5 3/4/5 4/5/5
f 6/11/6 5/10/6 1/1/6 2/13/6
