# Blender v3.0.1 OBJ File: 'sampleSkyBox.blend'
# www.blender.org
mtllib sampleSkyBox.mtl
o Cube
v 40.380680 40.380680 -40.380680
v 40.380680 -40.380680 -40.380680
v 40.380680 40.380680 40.380680
v 40.380680 -40.380680 40.380680
v -40.380680 40.380680 -40.380680
v -40.380680 -40.380680 -40.380680
v -40.380680 40.380680 40.380680
v -40.380680 -40.380680 40.380680
vt 0.496943 0.660237
vt 0.496912 0.996545
vt 0.256849 0.996544
vt 0.255846 0.666130
vt 0.257067 0.344364
vt -0.000006 0.666592
vt -0.000063 0.345136
vt 0.993047 0.345632
vt 0.992882 0.660399
vt 0.748994 0.660845
vt 0.750990 0.348356
vt 0.496895 0.014328
vt 0.497898 0.346360
vt 0.256838 0.014324
vn 0.0000 1.0000 0.0000
vn 0.0000 0.0000 1.0000
vn -1.0000 0.0000 0.0000
vn 0.0000 -1.0000 0.0000
vn 1.0000 0.0000 0.0000
vn 0.0000 0.0000 -1.0000
usemtl Material
s off
f 1/1/1 5/2/1 7/3/1 3/4/1
f 4/5/2 3/4/2 7/6/2 8/7/2
f 8/8/3 7/9/3 5/10/3 6/11/3
f 6/12/4 2/13/4 4/5/4 8/14/4
f 2/13/5 1/1/5 3/4/5 4/5/5
f 6/11/6 5/10/6 1/1/6 2/13/6
